<?xml version="1.0" standalone="no"?>
<!DOCTYPE svg PUBLIC "-//W3C//DTD SVG 20010904//EN"
 "http://www.w3.org/TR/2001/REC-SVG-20010904/DTD/svg10.dtd">
<svg version="1.0" xmlns="http://www.w3.org/2000/svg"
 width="512.000000pt" height="512.000000pt" viewBox="0 0 512.000000 512.000000"
 preserveAspectRatio="xMidYMid meet">

<g transform="translate(0.000000,512.000000) scale(0.100000,-0.100000)"
fill="#000000" stroke="none">
<path d="M2415 5109 c-206 -29 -418 -140 -565 -296 -110 -115 -127 -150 -92
-194 19 -22 18 -24 -11 -89 -28 -60 -34 -67 -60 -67 -73 0 -102 -98 -101 -338
1 -191 14 -250 98 -435 31 -68 56 -124 56 -126 0 -1 -34 -21 -76 -43 -349
-189 -645 -505 -810 -867 -51 -112 -108 -292 -135 -424 -21 -102 -24 -142 -24
-355 0 -273 14 -370 85 -585 282 -849 1115 -1380 2000 -1275 613 73 1137 432
1437 985 97 179 179 441 204 651 17 153 7 457 -20 594 -83 410 -314 796 -641
1069 -91 77 -233 172 -317 215 -35 17 -63 33 -63 35 0 2 25 58 56 126 86 189
98 243 98 445 1 186 -11 248 -74 397 -169 397 -607 639 -1045 577z m390 -181
c264 -76 485 -306 559 -583 37 -137 31 -332 -15 -469 -20 -59 -523 -1106 -555
-1154 -9 -13 -20 -20 -24 -16 -22 24 -532 1094 -554 1164 -14 44 -28 113 -31
153 l-5 72 15 -55 c31 -107 110 -200 214 -249 48 -22 69 -26 151 -26 82 0 103
4 151 26 239 112 300 407 124 597 -32 34 -77 70 -112 87 -53 28 -67 30 -163
30 -98 0 -109 -2 -165 -31 -63 -33 -141 -108 -169 -162 -9 -17 -23 -55 -30
-84 l-15 -53 0 45 c-2 114 74 319 163 444 94 132 308 301 366 289 14 -2 56
-14 95 -25z m-171 -580 c51 -16 119 -82 136 -132 20 -63 9 -157 -25 -206 -44
-63 -106 -95 -185 -95 -80 0 -141 32 -185 96 -41 58 -47 157 -15 224 49 101
160 147 274 113z m-457 -225 c-3 -10 -5 -2 -5 17 0 19 2 27 5 18 2 -10 2 -26
0 -35z m-182 -1086 c101 -207 200 -399 220 -427 49 -67 134 -126 217 -151 l68
-21 0 -103 c0 -89 -3 -106 -21 -129 -16 -21 -28 -26 -52 -24 -26 2 -38 13 -68
58 -44 67 -86 97 -203 145 -79 33 -98 37 -155 33 -36 -2 -84 -12 -106 -23 -60
-28 -375 -346 -411 -415 -27 -50 -29 -64 -29 -160 0 -131 10 -152 136 -288
108 -116 168 -209 205 -317 24 -69 28 -95 27 -195 0 -97 -4 -128 -26 -196 -33
-98 -103 -208 -184 -287 l-60 -58 -79 64 c-159 128 -323 325 -421 505 l-43 77
144 145 c82 83 154 164 167 190 33 63 33 167 0 230 -14 27 -108 130 -239 262
l-216 218 13 67 c18 98 74 262 132 383 107 223 293 457 488 608 91 71 289 194
304 189 5 -1 92 -172 192 -380z m1374 358 c27 -13 95 -55 152 -94 270 -181
483 -435 613 -731 20 -44 36 -83 36 -85 0 -2 -109 -5 -242 -7 l-243 -3 -58
-29 c-32 -15 -87 -55 -121 -87 -74 -69 -97 -79 -177 -79 -54 0 -64 3 -90 29
-23 24 -29 38 -29 73 1 49 8 62 69 112 37 31 50 36 95 36 82 0 139 25 190 81
86 95 85 218 -3 312 -40 44 -90 65 -179 76 -87 11 -161 42 -200 84 l-24 25 75
156 c42 86 78 156 82 156 3 0 27 -11 54 -25z m-224 -476 c56 -37 141 -67 216
-75 75 -8 109 -32 109 -76 0 -60 -40 -88 -124 -88 -73 0 -113 -18 -182 -82
-36 -34 -74 -78 -84 -98 -62 -122 -10 -283 111 -344 47 -23 65 -26 156 -26
128 0 150 9 239 93 113 105 100 102 389 102 l249 0 18 -74 c9 -41 20 -98 24
-128 l6 -53 -589 0 c-646 0 -649 0 -763 -61 -118 -63 -149 -120 -95 -174 33
-34 58 -31 121 10 110 73 73 70 737 73 l597 3 0 -88 c-1 -310 -123 -681 -313
-950 -123 -173 -343 -378 -522 -485 -109 -66 -227 -119 -240 -108 -34 28 -65
129 -75 241 -16 190 -65 305 -188 443 -80 89 -127 176 -147 272 -7 36 -21 74
-31 85 -22 25 -75 25 -105 0 -30 -24 -29 -79 5 -187 31 -98 75 -172 162 -271
87 -100 131 -191 144 -303 25 -204 38 -253 87 -341 4 -7 -151 -45 -243 -58
-263 -39 -546 -15 -797 69 -86 29 -327 138 -327 148 0 2 30 36 66 74 153 163
224 339 224 559 0 227 -81 410 -269 611 -167 178 -157 230 92 475 187 185 187
185 315 127 78 -36 90 -45 126 -99 92 -134 257 -147 355 -28 43 52 51 88 51
225 l0 118 28 6 c57 14 145 69 195 124 38 41 73 98 131 218 48 97 84 158 90
154 6 -3 29 -18 51 -33z m-1984 -1273 c21 -28 29 -51 29 -79 0 -38 -7 -47
-122 -164 -87 -87 -124 -119 -130 -110 -18 34 -69 239 -83 338 -8 60 -15 162
-15 227 l0 117 146 -145 c80 -80 159 -163 175 -184z"/>
<path d="M1881 1794 c-18 -22 -21 -41 -21 -111 0 -76 2 -86 25 -108 31 -32 69
-32 100 0 23 22 25 32 25 113 0 80 -2 91 -23 110 -33 31 -80 29 -106 -4z"/>
<path d="M3130 1800 c-17 -17 -20 -33 -20 -113 0 -85 2 -96 23 -115 29 -28 67
-28 101 -1 25 19 26 25 26 113 0 79 -3 95 -20 114 -27 29 -83 29 -110 2z"/>
<path d="M2365 1698 c-57 -31 -61 -86 -9 -135 65 -61 109 -78 204 -78 73 0 92
4 136 27 92 48 128 117 87 166 -29 34 -64 37 -103 8 -45 -33 -94 -56 -120 -56
-26 0 -75 23 -119 55 -38 28 -47 29 -76 13z"/>
</g>
</svg>
